<svg data-cached="true" xmlns="http://www.w3.org/2000/svg" width="922" height="484" viewBox="0 0 922 484" preserveAspectRatio="xMidYMid meet"><svg id="__background" x="0" y="0" width="922" height="484" preserveAspectRatio="xMidYMid meet"><rect x="0" y="0" width="922" height="484" fill="#ffffff" stroke="none" stroke-width="0px"/></svg><g id="__padding" transform="translate(26 26)"><svg id="data" x="0" y="0" width="870" height="432" viewBox="0 0 870 432" preserveAspectRatio="xMinYMid meet"><path fill="#000000" d="M0 432 L6 432 L6 0 L0 0 Z"/><path fill="#000000" d="M12 432 L18 432 L18 0 L12 0 Z"/><path fill="#000000" d="M24 432 L48 432 L48 0 L24 0 Z"/><path fill="#000000" d="M54 432 L66 432 L66 0 L54 0 Z"/><path fill="#000000" d="M72 432 L78 432 L78 0 L72 0 Z"/><path fill="#000000" d="M96 432 L102 432 L102 0 L96 0 Z"/><path fill="#000000" d="M108 432 L114 432 L114 0 L108 0 Z"/><path fill="#000000" d="M126 432 L132 432 L132 0 L126 0 Z"/><path fill="#000000" d="M138 432 L150 432 L150 0 L138 0 Z"/><path fill="#000000" d="M162 432 L174 432 L174 0 L162 0 Z"/><path fill="#000000" d="M186 432 L192 432 L192 0 L186 0 Z"/><path fill="#000000" d="M198 432 L204 432 L204 0 L198 0 Z"/><path fill="#000000" d="M216 432 L228 432 L228 0 L216 0 Z"/><path fill="#000000" d="M240 432 L246 432 L246 0 L240 0 Z"/><path fill="#000000" d="M258 432 L264 432 L264 0 L258 0 Z"/><path fill="#000000" d="M270 432 L276 432 L276 0 L270 0 Z"/><path fill="#000000" d="M300 432 L306 432 L306 0 L300 0 Z"/><path fill="#000000" d="M312 432 L318 432 L318 0 L312 0 Z"/><path fill="#000000" d="M324 432 L330 432 L330 0 L324 0 Z"/><path fill="#000000" d="M336 432 L342 432 L342 0 L336 0 Z"/><path fill="#000000" d="M366 432 L372 432 L372 0 L366 0 Z"/><path fill="#000000" d="M378 432 L384 432 L384 0 L378 0 Z"/><path fill="#000000" d="M396 432 L402 432 L402 0 L396 0 Z"/><path fill="#000000" d="M408 432 L426 432 L426 0 L408 0 Z"/><path fill="#000000" d="M432 432 L438 432 L438 0 L432 0 Z"/><path fill="#000000" d="M450 432 L456 432 L456 0 L450 0 Z"/><path fill="#000000" d="M468 432 L474 432 L474 0 L468 0 Z"/><path fill="#000000" d="M486 432 L492 432 L492 0 L486 0 Z"/><path fill="#000000" d="M504 432 L510 432 L510 0 L504 0 Z"/><path fill="#000000" d="M528 432 L534 432 L534 0 L528 0 Z"/><path fill="#000000" d="M540 432 L546 432 L546 0 L540 0 Z"/><path fill="#000000" d="M552 432 L558 432 L558 0 L552 0 Z"/><path fill="#000000" d="M564 432 L570 432 L570 0 L564 0 Z"/><path fill="#000000" d="M594 432 L600 432 L600 0 L594 0 Z"/><path fill="#000000" d="M618 432 L624 432 L624 0 L618 0 Z"/><path fill="#000000" d="M636 432 L642 432 L642 0 L636 0 Z"/><path fill="#000000" d="M648 432 L654 432 L654 0 L648 0 Z"/><path fill="#000000" d="M678 432 L684 432 L684 0 L678 0 Z"/><path fill="#000000" d="M690 432 L696 432 L696 0 L690 0 Z"/><path fill="#000000" d="M702 432 L708 432 L708 0 L702 0 Z"/><path fill="#000000" d="M720 432 L732 432 L732 0 L720 0 Z"/><path fill="#000000" d="M738 432 L750 432 L750 0 L738 0 Z"/><path fill="#000000" d="M756 432 L768 432 L768 0 L756 0 Z"/><path fill="#000000" d="M774 432 L786 432 L786 0 L774 0 Z"/><path fill="#000000" d="M792 432 L798 432 L798 0 L792 0 Z"/><path fill="#000000" d="M810 432 L816 432 L816 0 L810 0 Z"/><path fill="#000000" d="M822 432 L828 432 L828 0 L822 0 Z"/><path fill="#000000" d="M834 432 L858 432 L858 0 L834 0 Z"/><path fill="#000000" d="M864 432 L870 432 L870 0 L864 0 Z"/></svg></g></svg>